<?xml version="1.0" ?><svg data-name="Layer 1" id="Layer_1" viewBox="0 0 512 512" xmlns="http://www.w3.org/2000/svg"><title/><path d="M342.61,420.82c10.35-3,19.87-6.34,28.9-9.82a121.38,121.38,0,0,1-3,12.85,331.32,331.32,0,0,1-32.43,11.22,334.44,334.44,0,0,1-80,12.85h0a334.44,334.44,0,0,1-80-12.85,331.32,331.32,0,0,1-32.43-11.22,121.38,121.38,0,0,1-3-12.85c9,3.47,18.56,6.83,28.9,9.82A361.83,361.83,0,0,0,256,434.73h0A361.83,361.83,0,0,0,342.61,420.82ZM264.43,180.44a8,8,0,1,0-8,8A8,8,0,0,0,264.43,180.44ZM387.68,393.38a388,388,0,0,1-38,13.14,391.51,391.51,0,0,1-93.7,15h0a391.51,391.51,0,0,1-93.7-15,388,388,0,0,1-38-13.14c-3.68-12.45-8.11-33.09-3.74-57.27,13.85-76.63,100.8-118.1,128.32-129.5a10.7,10.7,0,1,1,14.83.26C291.91,218.63,377.67,260,391.42,336.11,395.79,360.29,391.36,380.93,387.68,393.38Zm-24.8-56.83C350.66,268.93,266.28,236,256,232.12h0c-10.27,3.85-94.65,36.81-106.87,104.43-3.45,19.08,0,35.37,3,45.2a306,306,0,0,0,30,10.37A309,309,0,0,0,256,404h0a309,309,0,0,0,74-11.88,306,306,0,0,0,30-10.37C362.83,371.92,366.33,355.63,362.88,336.55ZM249.43,167.78c1.75.27,13.61.42,17.23-.3a52.25,52.25,0,0,0,41.82-56.22,39.82,39.82,0,1,1-53.56-47.2,52.1,52.1,0,0,0-5.49,103.72Z"/></svg>